<?xml version="1.0" encoding="iso-8859-1"?>
<!-- Generator: Adobe Illustrator 19.0.0, SVG Export Plug-In . SVG Version: 6.00 Build 0)  -->
<svg version="1.1" id="Layer_1" xmlns="http://www.w3.org/2000/svg" xmlns:xlink="http://www.w3.org/1999/xlink" x="0px" y="0px"
	 viewBox="0 0 299.86 299.86" style="enable-background:new 0 0 299.86 299.86;" xml:space="preserve">
<g>
	<g>
		<path d="M175.45,57.42h-19.497C152.826,28.516,128.589,0,86.13,0c-3.528,0-6.38,2.852-6.38,6.38s2.852,6.38,6.38,6.38
			c37.553,0,53.945,25.223,56.909,44.66H124.41c-41.323,0-70.18,29.476-70.18,71.673v75.067c0,52.769,42.931,95.7,95.7,95.7
			s95.7-42.931,95.7-95.7v-75.067C245.63,86.896,216.773,57.42,175.45,57.42z M232.87,129.093v4.887h-76.56v-63.8
			c8.972,0,19.14,0,19.14,0C209.794,70.18,232.87,93.856,232.87,129.093z M66.99,129.093c0-35.237,23.076-58.913,57.42-58.913
			c0,0,10.168,0,19.14,0v63.8H66.99V129.093z M232.87,204.16c0,45.732-37.208,82.94-82.94,82.94s-82.94-37.208-82.94-82.94v-57.42
			h165.88V204.16z"/>
	</g>
</g>
<g>
</g>
<g>
</g>
<g>
</g>
<g>
</g>
<g>
</g>
<g>
</g>
<g>
</g>
<g>
</g>
<g>
</g>
<g>
</g>
<g>
</g>
<g>
</g>
<g>
</g>
<g>
</g>
<g>
</g>
</svg>
