<?xml version="1.0" ?><!DOCTYPE svg  PUBLIC '-//W3C//DTD SVG 1.1//EN'  'http://www.w3.org/Graphics/SVG/1.1/DTD/svg11.dtd'><svg enable-background="new 0 0 512 512" id="Layer_1" version="1.1" viewBox="0 0 512 512" xml:space="preserve" xmlns="http://www.w3.org/2000/svg" xmlns:xlink="http://www.w3.org/1999/xlink"><g><path d="   M397,109.4V44.2c0-15.5-12.6-28.2-28.2-28.2H85.6C70,16,57.4,28.6,57.4,44.2v65.3c0,15.5,12.6,28.2,28.2,28.2h283.2   C384.4,137.6,397,125,397,109.4z" fill="none" stroke="#000000" stroke-linecap="round" stroke-linejoin="round" stroke-miterlimit="10" stroke-width="10"/><path d="   M418.4,62.5h-21.6v25.6h21.6c5.8,0,10.6,4.7,10.6,10.6v70c0,5.8-4.7,10.6-10.6,10.6H251c-19.9,0-36.1,16.2-36.1,36.1v60.7   c0,0,25.3,0,25.6,0v-60.7c0-5.8,4.7-10.6,10.6-10.6h167.4c19.9,0,36.1-16.2,36.1-36.1v-70C454.6,78.8,438.3,62.5,418.4,62.5z" fill="none" stroke="#000000" stroke-linecap="round" stroke-linejoin="round" stroke-miterlimit="10" stroke-width="10"/><path d="   M239.5,275.9h-24.6c-11.6,0-21,9.4-21,21V475c0,11.6,9.4,21,21,21h24.6c11.6,0,21-9.4,21-21V296.9   C260.5,285.3,251.1,275.9,239.5,275.9z" fill="none" stroke="#000000" stroke-linecap="round" stroke-linejoin="round" stroke-miterlimit="10" stroke-width="10"/></g></svg>